<svg width="18.000000" height="18.000000" viewBox="0 0 18 18" fill="none" xmlns="http://www.w3.org/2000/svg" xmlns:xlink="http://www.w3.org/1999/xlink">
	<desc>
			Created with Pixso.
	</desc>
	<defs/>
	<path id="%" d="M0 3.61C0 2.54 0.39 1.67 1.17 1.01C1.96 0.33 2.99 0 4.26 0C5.55 0 6.59 0.33 7.38 0.99C8.16 1.65 8.55 2.54 8.55 3.67L8.55 4.54C8.55 5.62 8.16 6.49 7.38 7.15C6.59 7.81 5.56 8.14 4.29 8.14C3.01 8.14 1.97 7.81 1.17 7.15C0.39 6.48 0 5.59 0 4.47L0 3.61ZM2.6 4.54C2.6 5.02 2.75 5.41 3.06 5.71C3.37 6 3.78 6.14 4.29 6.14C4.79 6.14 5.2 5.99 5.49 5.69C5.79 5.4 5.94 5 5.94 4.5L5.94 3.61C5.94 3.13 5.79 2.74 5.49 2.45C5.2 2.15 4.79 2 4.26 2C3.76 2 3.36 2.15 3.06 2.45C2.75 2.74 2.6 3.14 2.6 3.66L2.6 4.54ZM9.42 13.46C9.42 12.38 9.82 11.51 10.61 10.85C11.41 10.19 12.44 9.85 13.7 9.85C14.98 9.85 16.02 10.18 16.8 10.84C17.6 11.49 18 12.39 18 13.53L18 14.4C18 15.47 17.61 16.34 16.83 17.01C16.05 17.67 15.02 18 13.73 18C12.43 18 11.39 17.66 10.6 17C9.81 16.33 9.42 15.45 9.42 14.35L9.42 13.46ZM12.02 14.4C12.02 14.84 12.18 15.22 12.51 15.53C12.83 15.84 13.24 16 13.73 16C14.83 16 15.38 15.46 15.38 14.38L15.38 13.46C15.38 12.98 15.23 12.6 14.92 12.31C14.61 12.01 14.21 11.86 13.7 11.86C13.2 11.86 12.79 12.01 12.48 12.31C12.18 12.6 12.02 12.99 12.02 13.5L12.02 14.4ZM5.06 16.44L3.15 15.53L12.78 1.85L14.69 2.76L5.06 16.44Z" fill="#8D8D8D" fill-opacity="1.000000" fill-rule="nonzero"/>
</svg>
