<svg width="18.000000" height="18.000000" viewBox="0 0 18 18" fill="none" xmlns="http://www.w3.org/2000/svg" xmlns:xlink="http://www.w3.org/1999/xlink">
	<desc>
			Created with Pixso.
	</desc>
	<defs/>
	<path id="Vector" d="M13.52 15C12.71 15 12.05 15.67 12.05 16.5C12.05 17.32 12.71 18 13.52 18C14.34 18 15 17.32 15 16.5C15 15.67 14.34 15 13.52 15ZM8.22 15C7.4 15 6.75 15.67 6.75 16.5C6.75 17.32 7.4 18 8.22 18C9.03 18 9.69 17.32 9.69 16.5C9.69 15.67 9.03 15 8.22 15Z" fill="#8D8D8D" fill-opacity="1.000000" fill-rule="nonzero"/>
	<path id="Vector (Stroke)" d="M13.52 15.75C13.13 15.75 12.8 16.07 12.8 16.5C12.8 16.92 13.13 17.25 13.52 17.25C13.91 17.25 14.25 16.92 14.25 16.5C14.25 16.07 13.91 15.75 13.52 15.75ZM8.22 15.75C7.83 15.75 7.5 16.07 7.5 16.5C7.5 16.92 7.83 17.25 8.22 17.25C8.61 17.25 8.94 16.92 8.94 16.5C8.94 16.07 8.61 15.75 8.22 15.75ZM12.05 16.5C12.05 15.67 12.71 15 13.52 15C14.34 15 15 15.67 15 16.5C15 17.32 14.34 18 13.52 18C12.71 18 12.05 17.32 12.05 16.5ZM6.75 16.5C6.75 15.67 7.4 15 8.22 15C9.03 15 9.69 15.67 9.69 16.5C9.69 17.32 9.03 18 8.22 18C7.4 18 6.75 17.32 6.75 16.5Z" fill="#8D8D8D" fill-opacity="1.000000" fill-rule="evenodd"/>
	<path id="Vector 1546 (Stroke)" d="M0 0.75C0 0.33 0.33 0 0.75 0L4.26 0C4.6 0 4.89 0.22 4.98 0.55L5.95 4.21L17.25 4.21C17.49 4.21 17.72 4.33 17.86 4.53C18 4.73 18.03 4.98 17.95 5.21L15.14 12.94C15.03 13.23 14.75 13.43 14.44 13.43L7.42 13.43C7.07 13.43 6.78 13.2 6.69 12.87L3.68 1.5L0.75 1.5C0.33 1.5 0 1.16 0 0.75ZM6.35 5.71L7.99 11.93L13.91 11.93L16.17 5.71L6.35 5.71Z" fill="#8D8D8D" fill-opacity="1.000000" fill-rule="evenodd"/>
</svg>
