<svg width="18.000000" height="18.000000" viewBox="0 0 18 18" fill="none" xmlns="http://www.w3.org/2000/svg" xmlns:xlink="http://www.w3.org/1999/xlink">
	<desc>
			Created with Pixso.
	</desc>
	<defs/>
	<path id="Vector" d="M17.32 3.6L17.32 0.71C17.32 0.32 17 0 16.6 0L1.39 0C0.99 0 0.67 0.32 0.67 0.71L0.67 3.6C0.29 3.62 0 3.93 0 4.31L0 7.28C-0.01 7.82 0.1 8.36 0.32 8.86C0.42 9.09 0.54 9.31 0.67 9.51L0.67 17.28C0.67 17.67 0.99 18 1.39 18L16.6 18C17 18 17.32 17.67 17.32 17.28L17.32 9.51C17.46 9.31 17.57 9.09 17.67 8.86C17.88 8.36 18 7.83 18 7.28L18 4.31C18 3.93 17.7 3.62 17.32 3.6ZM2.29 1.62L15.7 1.62L15.7 3.59L2.29 3.59L2.29 1.62ZM10.44 16.38L7.56 16.38L7.56 14.04L10.44 14.04L10.44 16.38ZM15.7 16.38L11.88 16.38L11.88 13.31C11.88 12.92 11.55 12.6 11.16 12.6L6.83 12.6C6.44 12.6 6.12 12.92 6.12 13.31L6.12 16.38L2.29 16.38L2.29 10.93C2.36 10.96 2.42 10.99 2.49 11.02C2.99 11.23 3.53 11.34 4.08 11.34C4.63 11.34 5.16 11.23 5.66 11.02C5.97 10.89 6.26 10.72 6.53 10.52C6.54 10.52 6.54 10.52 6.54 10.52C6.81 10.72 7.11 10.89 7.42 11.02C7.92 11.23 8.45 11.34 9 11.34C9.55 11.34 10.08 11.23 10.58 11.02C10.89 10.89 11.19 10.72 11.45 10.52C11.46 10.52 11.46 10.52 11.47 10.52C11.74 10.72 12.03 10.89 12.34 11.02C12.84 11.23 13.37 11.34 13.92 11.34C14.47 11.34 15 11.23 15.51 11.02C15.57 10.99 15.64 10.96 15.71 10.93L15.71 16.38L15.7 16.38ZM16.37 7.28C16.37 8.62 15.27 9.71 13.92 9.71C13 9.71 12.2 9.22 11.77 8.48C11.71 8.37 11.59 8.3 11.46 8.3L11.45 8.3C11.32 8.3 11.2 8.37 11.13 8.48C10.92 8.86 10.61 9.17 10.23 9.39C9.86 9.6 9.43 9.72 9 9.71C8.08 9.71 7.28 9.22 6.86 8.48C6.79 8.37 6.67 8.3 6.54 8.3C6.4 8.3 6.28 8.37 6.21 8.48C6 8.86 5.68 9.17 5.31 9.39C4.93 9.6 4.51 9.72 4.07 9.71C2.72 9.71 1.62 8.62 1.62 7.28L1.62 5.23C1.62 5.22 1.62 5.21 1.63 5.21L16.36 5.21C16.37 5.21 16.37 5.22 16.37 5.23L16.37 7.28Z" fill="#8D8D8D" fill-opacity="1.000000" fill-rule="nonzero"/>
</svg>
