<svg width="18.000000" height="18.000000" viewBox="0 0 18 18" fill="none" xmlns="http://www.w3.org/2000/svg" xmlns:xlink="http://www.w3.org/1999/xlink">
	<desc>
			Created with Pixso.
	</desc>
	<defs/>
	<path id="Vector" d="M12.48 0C11.76 0 11.01 0.16 10.29 0.47L10.25 0.49L10.22 0.5C9.76 0.76 9.34 1.08 8.97 1.45C6.96 -0.43 3.76 -0.57 1.57 1.57L1.54 1.59L1.52 1.62C-0.4 3.79 -0.35 7.14 0.8 9.78L0.81 9.8L0.82 9.82C2.18 12.55 4.71 14.86 7.01 16.76L7.02 16.76L7.03 16.77C7.17 16.88 7.43 17.13 7.72 17.37C8.02 17.61 8.35 17.87 8.84 17.97L8.95 18L9.06 17.99C9.57 17.94 9.77 17.73 10.11 17.5C10.44 17.27 10.81 16.98 11.2 16.67C11.95 16.04 12.73 15.32 13.24 14.8C13.25 14.79 13.26 14.78 13.26 14.78C13.27 14.78 13.27 14.78 13.27 14.77C14.35 13.78 15.42 12.62 16.33 11.27C16.33 11.27 16.33 11.27 16.33 11.27C16.33 11.27 16.33 11.26 16.33 11.26C17.77 9.16 18.47 6.33 17.64 3.54L17.62 3.49L17.6 3.45C16.67 1.26 14.66 -0.03 12.48 0ZM12.51 1.71C14.07 1.67 15.45 2.58 16.13 4.13C16.76 6.31 16.21 8.53 15.04 10.23L15.04 10.24L15.04 10.24C14.22 11.46 13.23 12.53 12.2 13.48L12.19 13.49L12.18 13.51C11.72 13.97 10.93 14.7 10.22 15.29C9.86 15.59 9.52 15.85 9.25 16.04C9.15 16.1 9.06 16.15 8.98 16.19C8.9 16.14 8.79 16.07 8.69 15.98C8.47 15.8 8.24 15.58 7.98 15.38C7.98 15.37 7.98 15.37 7.97 15.37C5.73 13.52 3.37 11.28 2.24 9.02C1.32 6.89 1.36 4.34 2.66 2.84C4.43 1.14 7.06 1.51 8.37 3.26L9.01 4.11L9.62 3.24C9.98 2.74 10.4 2.36 10.92 2.07C11.46 1.84 11.99 1.72 12.51 1.71Z" fill="#8D8D8D" fill-opacity="1.000000" fill-rule="nonzero"/>
</svg>
