<svg width="24.500061" height="16.500305" viewBox="0 0 24.5001 16.5003" fill="none" xmlns="http://www.w3.org/2000/svg" xmlns:xlink="http://www.w3.org/1999/xlink">
	<desc>
			Created with Pixso.
	</desc>
	<defs/>
	<path id="Vector" d="M5.06 11.27L1.02 15.16C0.86 14.86 0.75 14.47 0.75 14.04L0.75 1.3L8.08 8.36L10.14 10.35C10.25 10.45 10.36 10.54 10.47 10.62C11.59 11.49 12.89 11.49 14.01 10.62C14.11 10.54 14.22 10.44 14.33 10.35L16.4 8.35M15.98 8.77L23.75 1.28L23.75 14.04C23.75 14.46 23.65 14.84 23.49 15.13L17.84 9.74M1.05 1.11L1.02 1.09" stroke="#8D8D8D" stroke-opacity="1.000000" stroke-width="1.500000" stroke-linejoin="round" stroke-linecap="round"/>
	<path id="Vector" d="M17.81 9.7L23.49 15.13C23.3 15.5 23 15.74 22.67 15.74L1.83 15.74C1.51 15.74 1.22 15.52 1.02 15.16L6.58 9.81" stroke="#8D8D8D" stroke-opacity="1.000000" stroke-width="1.500000" stroke-linejoin="round" stroke-linecap="round"/>
	<path id="Vector" d="M18.6 0.75L22.96 0.75C23.23 0.75 23.49 0.91 23.68 1.18C23.7 1.21 23.73 1.24 23.74 1.28L16.4 8.35L14.32 10.35C14.22 10.44 14.11 10.54 14.01 10.62C12.89 11.49 11.59 11.49 10.47 10.62C10.36 10.54 10.25 10.45 10.14 10.35L8.08 8.36L0.75 1.3C0.77 1.27 0.79 1.24 0.82 1.21C1.01 0.92 1.27 0.75 1.56 0.75L5.46 0.75M1.89 15.74C1.89 15.74 0.62 15.81 0.75 13.59" stroke="#8D8D8D" stroke-opacity="1.000000" stroke-width="1.500000" stroke-linejoin="round" stroke-linecap="round"/>
	<path id="Vector 1545" d="M5.12 0.75L19.85 0.75" stroke="#8D8D8D" stroke-opacity="1.000000" stroke-width="1.358491"/>
</svg>
