<svg width="18.000000" height="18.000000" viewBox="0 0 18 18" fill="none" xmlns="http://www.w3.org/2000/svg" xmlns:xlink="http://www.w3.org/1999/xlink">
	<desc>
			Created with Pixso.
	</desc>
	<defs>
		<clipPath id="clip2_87">
			<rect id="Frame 1180" rx="-0.500000" width="17.000000" height="17.000000" transform="translate(0.500000 0.500000)" fill="white" fill-opacity="0"/>
		</clipPath>
	</defs>
	<rect id="Frame 1180" rx="-0.500000" width="17.000000" height="17.000000" transform="translate(0.500000 0.500000)" fill="#FFFFFF" fill-opacity="1.000000"/>
	<g clip-path="url(#clip2_87)">
		<path id="Vector" d="M8.32 17.63C3.37 10.23 2.45 9.47 2.45 6.75C2.45 3.02 5.38 0 9 0C12.61 0 15.54 3.02 15.54 6.75C15.54 9.47 14.62 10.23 9.67 17.63C9.34 18.12 8.65 18.12 8.32 17.63ZM4.06 7.92Q3.95 7.44 3.95 6.75Q3.95 6.09 4.1 5.46Q4.2 5.07 4.35 4.69Q4.57 4.16 4.88 3.71Q5.13 3.34 5.44 3.02Q5.89 2.56 6.41 2.23Q6.72 2.05 7.05 1.9Q7.48 1.71 7.94 1.61Q8.46 1.5 9 1.5Q9.53 1.5 10.05 1.61Q10.51 1.71 10.94 1.9Q11.28 2.05 11.58 2.23Q12.1 2.56 12.55 3.02Q12.86 3.34 13.11 3.71Q13.42 4.16 13.64 4.69Q13.79 5.07 13.89 5.46Q14.04 6.09 14.04 6.75Q14.04 7.44 13.93 7.92Q13.82 8.43 13.52 9.03Q13.2 9.67 12.51 10.74Q12.04 11.46 10.71 13.41Q9.73 14.86 9 15.94Q8.26 14.86 7.28 13.41Q5.95 11.46 5.48 10.74Q4.79 9.67 4.47 9.03Q4.17 8.43 4.06 7.92ZM13.12 7.69Q13.22 7.23 13.22 6.75Q13.22 6.26 13.12 5.8Q13.04 5.43 12.9 5.08Q12.73 4.67 12.49 4.31Q12.27 3.99 12 3.71Q11.67 3.37 11.28 3.12Q10.99 2.92 10.66 2.78Q10.27 2.61 9.87 2.52Q9.44 2.43 9 2.43Q8.55 2.43 8.12 2.52Q7.72 2.61 7.33 2.78Q7 2.92 6.71 3.12Q6.32 3.37 5.99 3.71Q5.72 3.99 5.5 4.31Q5.26 4.67 5.09 5.08Q4.95 5.43 4.87 5.8Q4.77 6.26 4.77 6.75Q4.77 7.23 4.87 7.69Q4.95 8.06 5.09 8.41Q5.26 8.82 5.5 9.18Q5.72 9.5 5.99 9.78Q6.32 10.12 6.71 10.37Q7 10.57 7.33 10.71Q7.72 10.88 8.12 10.97Q8.55 11.06 9 11.06Q9.44 11.06 9.87 10.97Q10.27 10.88 10.66 10.71Q10.99 10.57 11.28 10.37Q11.67 10.12 12 9.78Q12.27 9.5 12.49 9.18Q12.73 8.82 12.9 8.41Q13.04 8.06 13.12 7.69ZM9 9.56C10.5 9.56 11.72 8.3 11.72 6.75C11.72 5.19 10.5 3.93 9 3.93C7.49 3.93 6.27 5.19 6.27 6.75C6.27 8.3 7.49 9.56 9 9.56Z" fill="#8D8D8D" fill-opacity="1.000000" fill-rule="evenodd"/>
	</g>
</svg>
