<svg width="26.000000" height="26.000000" viewBox="0 0 26 26" fill="none" xmlns="http://www.w3.org/2000/svg" xmlns:xlink="http://www.w3.org/1999/xlink">
	<desc>
			Created with Pixso.
	</desc>
	<defs/>
	<path id="Vector" d="M11.11 22.23C13.58 22.23 15.98 21.41 17.92 19.89L24.03 26L26 24.03L19.89 17.92C21.41 15.98 22.23 13.58 22.23 11.11C22.23 4.98 17.24 0 11.11 0C4.98 0 0 4.98 0 11.11C0 17.24 4.98 22.23 11.11 22.23ZM11.11 2.77C15.71 2.77 19.45 6.51 19.45 11.11C19.45 15.71 15.71 19.45 11.11 19.45C6.51 19.45 2.77 15.71 2.77 11.11C2.77 6.51 6.51 2.77 11.11 2.77Z" fill="#E11C4B" fill-opacity="1.000000" fill-rule="nonzero"/>
</svg>
