<svg width="16.000000" height="18.000000" viewBox="0 0 16 18" fill="none" xmlns="http://www.w3.org/2000/svg" xmlns:xlink="http://www.w3.org/1999/xlink">
	<desc>
			Created with Pixso.
	</desc>
	<defs/>
	<path id="Vector" d="M3 4.5L3 2.69C3 2.17 3.16 1.66 3.48 1.23C3.79 0.79 4.24 0.44 4.77 0.23C5.3 0.02 5.88 -0.05 6.46 0.03C7.03 0.11 7.56 0.34 8 0.68C8.43 0.34 8.96 0.11 9.53 0.03C10.11 -0.05 10.69 0.02 11.22 0.23C11.75 0.44 12.2 0.79 12.51 1.23C12.83 1.66 13 2.17 13 2.69L13 4.5L14.5 4.5C14.89 4.5 15.27 4.64 15.56 4.89C15.84 5.14 16 5.49 16 5.84L16 14.85C16 15.68 15.63 16.48 14.97 17.07C14.32 17.66 13.43 18 12.5 18L4 18C2.93 18 1.92 17.62 1.17 16.94C0.42 16.27 0 15.35 0 14.4L0 5.84C0 5.49 0.15 5.14 0.43 4.89C0.72 4.64 1.1 4.5 1.5 4.5L3 4.5ZM9.63 16.65C9.22 16.12 9 15.49 9.01 14.85L9.01 5.84L1.5 5.84L1.5 14.4C1.5 14.69 1.56 14.98 1.69 15.26C1.81 15.53 2 15.78 2.23 15.99C2.46 16.2 2.73 16.36 3.04 16.47C3.34 16.59 3.67 16.65 4 16.65L9.63 16.65ZM7.5 4.5L7.5 2.69C7.5 2.34 7.34 1.99 7.06 1.74C6.77 1.49 6.39 1.34 6 1.34C5.6 1.34 5.22 1.49 4.93 1.74C4.65 1.99 4.5 2.34 4.5 2.69L4.5 4.5L7.5 4.5ZM9 4.5L11.5 4.5L11.5 2.69C11.5 2.42 11.4 2.15 11.22 1.92C11.04 1.69 10.79 1.52 10.5 1.42C10.21 1.33 9.9 1.32 9.6 1.39C9.3 1.47 9.04 1.62 8.84 1.83C8.94 2.1 9 2.39 9 2.69L9 4.5ZM10.51 14.85C10.51 15.33 10.72 15.78 11.09 16.12C11.46 16.46 11.97 16.65 12.5 16.65C13.03 16.65 13.54 16.46 13.91 16.12C14.28 15.78 14.5 15.33 14.5 14.85L14.5 5.84L10.51 5.84L10.51 14.85Z" fill="#8D8D8D" fill-opacity="1.000000" fill-rule="nonzero"/>
</svg>
