<svg width="18.000000" height="18.000000" viewBox="0 0 18 18" fill="none" xmlns="http://www.w3.org/2000/svg" xmlns:xlink="http://www.w3.org/1999/xlink">
	<desc>
			Created with Pixso.
	</desc>
	<defs/>
	<path id="Vector" d="M5.11 6L6.66 4.45C6.87 4.24 7.01 3.97 7.07 3.69C7.13 3.4 7.1 3.1 6.99 2.83L6.23 0.94C6.12 0.66 5.93 0.42 5.68 0.25C5.44 0.09 5.15 0 4.85 0L1.51 0C1.29 -0.01 1.08 0.04 0.89 0.12C0.7 0.21 0.52 0.33 0.38 0.49C0.24 0.65 0.13 0.84 0.07 1.04C0 1.24 -0.02 1.45 0 1.66C0.51 5.96 3.18 17.17 16.42 17.99C16.62 18 16.82 17.97 17.01 17.9C17.2 17.83 17.38 17.72 17.52 17.59C17.67 17.45 17.79 17.28 17.87 17.09C17.95 16.91 17.99 16.71 18 16.5L18 13.04C17.99 12.75 17.9 12.46 17.73 12.21C17.57 11.96 17.33 11.77 17.05 11.66L15.16 10.9C14.89 10.8 14.59 10.77 14.31 10.83C14.02 10.89 13.75 11.03 13.55 11.24L12 12.79C6 12.04 5.11 6 5.11 6ZM14.6 12.3L12.54 14.37L11.81 14.28Q9.9 14.04 8.35 13.17Q7.92 12.92 7.51 12.63Q7.34 12.5 7.17 12.36Q5.91 11.36 5.02 9.89Q4.98 9.82 4.94 9.75Q4.29 8.65 3.91 7.39Q3.78 6.97 3.69 6.58Q3.65 6.36 3.63 6.22L3.52 5.47L5.6 3.39Q5.6 3.39 5.59 3.38L4.84 1.5L1.5 1.5L1.5 1.5L1.5 1.5L1.5 1.5L1.5 1.5L1.49 1.49L1.49 1.49L1.49 1.49Q1.53 1.81 1.58 2.12Q1.83 3.81 2.35 5.46Q3.21 8.17 4.67 10.27Q5.95 12.13 7.65 13.43Q8.34 13.96 9.09 14.4Q12.23 16.23 16.49 16.5L16.49 16.5L16.49 16.49L16.49 16.49L16.49 16.49L16.5 16.5L16.5 13.06L16.49 13.05Q16.49 13.05 16.49 13.05L16.49 13.05Q16.49 13.05 16.5 13.05L14.62 12.3Q14.61 12.3 14.61 12.3L14.61 12.3Q14.61 12.3 14.6 12.3Q14.6 12.3 14.6 12.3Z" fill="#8D8D8D" fill-opacity="1.000000" fill-rule="evenodd"/>
</svg>
