<svg width="18.000000" height="18.000000" viewBox="0 0 18 18" fill="none" xmlns="http://www.w3.org/2000/svg" xmlns:xlink="http://www.w3.org/1999/xlink">
	<desc>
			Created with Pixso.
	</desc>
	<defs/>
	<path d="M10.62 5.31C10.62 4.32 9.72 3.53 8.69 3.72L8.68 3.72L8.68 3.72C8.38 3.78 8.05 3.98 7.78 4.33C7.52 4.67 7.37 5.08 7.37 5.43L7.37 6.18C7.37 6.54 7.52 6.94 7.78 7.29C8.05 7.63 8.38 7.84 8.69 7.9C9.73 8.08 10.62 7.3 10.62 6.3L10.62 5.31ZM8.38 2.03C10.49 1.66 12.33 3.27 12.33 5.31L12.33 6.3C12.33 8.35 10.49 9.96 8.38 9.58L8.38 9.58C7.57 9.43 6.89 8.94 6.43 8.34C5.96 7.74 5.66 6.97 5.66 6.18L5.66 5.43C5.66 4.65 5.96 3.88 6.42 3.28C6.89 2.68 7.57 2.18 8.38 2.03Z" fill="#8D8D8D" fill-opacity="1.000000" fill-rule="evenodd"/>
	<path d="M9 1.71C4.97 1.71 1.71 4.97 1.71 9C1.71 13.02 4.97 16.28 9 16.28C13.02 16.28 16.28 13.02 16.28 9C16.28 4.97 13.02 1.71 9 1.71ZM0 9C0 4.02 4.02 0 9 0C13.97 0 18 4.02 18 9C18 13.97 13.97 18 9 18C4.02 18 0 13.97 0 9Z" fill="#8D8D8D" fill-opacity="1.000000" fill-rule="evenodd"/>
	<path d="M8.99 12.33C6.82 12.33 4.99 13.58 4.23 15.3C4.03 15.73 3.53 15.93 3.1 15.73C2.66 15.54 2.47 15.03 2.66 14.6C3.71 12.24 6.17 10.62 8.99 10.62C11.82 10.62 14.28 12.24 15.33 14.6C15.52 15.03 15.33 15.54 14.89 15.73C14.46 15.93 13.96 15.73 13.76 15.3C13 13.58 11.17 12.33 8.99 12.33Z" fill="#8D8D8D" fill-opacity="1.000000" fill-rule="evenodd"/>
</svg>
