<svg width="24.000000" height="24.000000" viewBox="0 0 24 24" fill="none" xmlns="http://www.w3.org/2000/svg" xmlns:xlink="http://www.w3.org/1999/xlink">
	<desc>
			Created with Pixso.
	</desc>
	<defs>
		<clipPath id="clip2_172">
			<rect id="bx:bxl-vk" rx="-0.500000" width="23.000000" height="23.000000" transform="translate(0.500000 0.500000)" fill="white" fill-opacity="0"/>
		</clipPath>
	</defs>
	<rect id="bx:bxl-vk" rx="-0.500000" width="23.000000" height="23.000000" transform="translate(0.500000 0.500000)" fill="#FFFFFF" fill-opacity="0"/>
	<g clip-path="url(#clip2_172)">
		<path id="Vector" d="M21.57 6.85C21.71 6.38 21.57 6.04 20.91 6.04L18.72 6.04C18.16 6.04 17.91 6.34 17.77 6.66C17.77 6.66 16.65 9.38 15.07 11.15C14.56 11.66 14.33 11.82 14.05 11.82C13.91 11.82 13.71 11.66 13.71 11.19L13.71 6.85C13.71 6.29 13.55 6.04 13.08 6.04L9.64 6.04C9.29 6.04 9.08 6.3 9.08 6.55C9.08 7.08 9.87 7.2 9.95 8.69L9.95 11.91C9.95 12.62 9.82 12.75 9.54 12.75C8.8 12.75 6.99 10.02 5.92 6.9C5.71 6.29 5.5 6.04 4.94 6.04L2.75 6.04C2.12 6.04 2 6.34 2 6.66C2 7.25 2.74 10.13 5.46 13.93C7.27 16.54 9.82 17.95 12.14 17.95C13.54 17.95 13.71 17.63 13.71 17.09L13.71 15.13C13.71 14.5 13.84 14.37 14.28 14.37C14.61 14.37 15.16 14.54 16.46 15.79C17.95 17.28 18.2 17.95 19.03 17.95L21.22 17.95C21.85 17.95 22.16 17.63 21.98 17.01C21.79 16.4 21.08 15.5 20.13 14.45C19.62 13.84 18.86 13.19 18.62 12.87C18.3 12.45 18.39 12.26 18.62 11.89C18.62 11.89 21.3 8.13 21.57 6.85Z" fill="#8D8D8D" fill-opacity="1.000000" fill-rule="nonzero"/>
	</g>
</svg>
