<svg width="24.000000" height="24.000000" viewBox="0 0 24 24" fill="none" xmlns="http://www.w3.org/2000/svg" xmlns:xlink="http://www.w3.org/1999/xlink">
	<desc>
			Created with Pixso.
	</desc>
	<defs>
		<clipPath id="clip2_176">
			<rect id="ant-design:youtube-filled" rx="-0.500000" width="23.000000" height="23.000000" transform="translate(0.500000 0.500000)" fill="white" fill-opacity="0"/>
		</clipPath>
	</defs>
	<rect id="ant-design:youtube-filled" rx="-0.500000" width="23.000000" height="23.000000" transform="translate(0.500000 0.500000)" fill="#FFFFFF" fill-opacity="0"/>
	<g clip-path="url(#clip2_176)">
		<path id="Vector" d="M22.06 6.93C21.94 6.49 21.7 6.08 21.38 5.76C21.05 5.43 20.65 5.2 20.2 5.08C18.56 4.64 12 4.64 12 4.64C12 4.64 5.43 4.64 3.79 5.07C3.34 5.19 2.94 5.43 2.61 5.75C2.29 6.08 2.05 6.49 1.93 6.93C1.5 8.57 1.5 12 1.5 12C1.5 12 1.5 15.42 1.93 17.06C2.17 17.96 2.89 18.67 3.79 18.91C5.43 19.35 12 19.35 12 19.35C12 19.35 18.56 19.35 20.2 18.91C21.11 18.67 21.82 17.96 22.06 17.06C22.5 15.42 22.5 12 22.5 12C22.5 12 22.5 8.57 22.06 6.93ZM9.91 15.14L9.91 8.85L15.35 11.97L9.91 15.14Z" fill="#8D8D8D" fill-opacity="1.000000" fill-rule="nonzero"/>
	</g>
</svg>
